P3
16 16
255
78 0 0
87 0 0
78 0 0
9 0 0
9 0 0
78 0 0
9 0 0
78 0 0
78 0 0
48 0 0
48 0 0
58 0 0
19 0 0
9 0 0
87 0 0
39 0 0
78 0 0
0 0 0
39 0 0
58 0 0
39 0 0
87 0 0
78 0 0
58 0 0
19 0 0
39 0 0
48 0 0
78 0 0
19 0 0
19 0 0
0 0 0
87 0 0
0 0 0
0 0 0
87 0 0
0 0 0
48 0 0
97 0 0
78 0 0
78 0 0
87 0 0
78 0 0
9 0 0
48 0 0
48 0 0
39 0 0
78 0 0
48 0 0
19 0 0
0 0 0
48 0 0
48 0 0
19 0 0
48 0 0
48 0 0
78 0 0
97 0 0
48 0 0
39 0 0
39 0 0
0 0 0
58 0 0
97 0 0
9 0 0
9 0 0
78 0 0
9 0 0
87 0 0
87 0 0
48 0 0
48 0 0
0 0 0
58 0 0
48 0 0
19 0 0
87 0 0
39 0 0
87 0 0
97 0 0
87 0 0
87 0 0
78 0 0
87 0 0
58 0 0
0 0 0
78 0 0
9 0 0
19 0 0
48 0 0
58 0 0
9 0 0
87 0 0
58 0 0
39 0 0
97 0 0
9 0 0
39 0 0
58 0 0
9 0 0
9 0 0
0 0 0
19 0 0
0 0 0
9 0 0
78 0 0
78 0 0
87 0 0
19 0 0
87 0 0
19 0 0
19 0 0
58 0 0
48 0 0
78 0 0
58 0 0
97 0 0
0 0 0
87 0 0
78 0 0
87 0 0
87 0 0
19 0 0
39 0 0
78 0 0
97 0 0
58 0 0
78 0 0
9 0 0
39 0 0
9 0 0
9 0 0
9 0 0
78 0 0
97 0 0
0 0 0
39 0 0
97 0 0
78 0 0
48 0 0
48 0 0
39 0 0
19 0 0
97 0 0
58 0 0
9 0 0
58 0 0
58 0 0
9 0 0
78 0 0
58 0 0
9 0 0
48 0 0
48 0 0
39 0 0
39 0 0
9 0 0
39 0 0
19 0 0
9 0 0
19 0 0
48 0 0
0 0 0
19 0 0
97 0 0
58 0 0
97 0 0
19 0 0
39 0 0
48 0 0
58 0 0
78 0 0
78 0 0
97 0 0
9 0 0
39 0 0
48 0 0
39 0 0
48 0 0
48 0 0
87 0 0
78 0 0
87 0 0
39 0 0
9 0 0
78 0 0
0 0 0
19 0 0
48 0 0
19 0 0
0 0 0
48 0 0
48 0 0
78 0 0
87 0 0
48 0 0
48 0 0
9 0 0
0 0 0
58 0 0
48 0 0
19 0 0
87 0 0
0 0 0
48 0 0
19 0 0
0 0 0
78 0 0
87 0 0
48 0 0
58 0 0
87 0 0
48 0 0
58 0 0
19 0 0
87 0 0
39 0 0
87 0 0
87 0 0
19 0 0
9 0 0
87 0 0
87 0 0
19 0 0
0 0 0
48 0 0
9 0 0
0 0 0
0 0 0
0 0 0
9 0 0
39 0 0
78 0 0
97 0 0
19 0 0
19 0 0
87 0 0
0 0 0
97 0 0
87 0 0
87 0 0
58 0 0
97 0 0
87 0 0
39 0 0
48 0 0
39 0 0
19 0 0
48 0 0
58 0 0
87 0 0
19 0 0
0 0 0
19 0 0
0 0 0
97 0 0
58 0 0
