P3
16 16
255
78 0 255
87 0 255
78 0 255
9 0 255
9 0 255
78 0 255
9 0 255
78 0 255
78 0 255
48 0 255
48 0 255
58 0 255
19 0 255
9 0 255
87 0 255
39 0 255
78 0 255
0 0 255
39 0 255
58 0 255
39 0 255
87 0 255
78 0 255
58 0 255
19 0 255
39 0 255
48 0 255
78 0 255
19 0 255
19 0 255
0 0 255
87 0 255
0 0 255
0 0 255
87 0 255
0 0 255
48 0 255
97 0 255
78 0 255
78 0 255
87 0 255
78 0 255
9 0 255
48 0 255
48 0 255
39 0 255
78 0 255
48 0 255
19 0 255
0 0 255
48 0 255
48 0 255
19 0 255
48 0 255
48 0 255
78 0 255
97 0 255
48 0 255
39 0 255
39 0 255
0 0 255
58 0 255
97 0 255
9 0 255
9 0 255
78 0 255
9 0 255
87 0 255
87 0 255
48 0 255
48 0 255
0 0 255
58 0 255
48 0 255
19 0 255
87 0 255
39 0 255
87 0 255
97 0 255
87 0 255
87 0 255
78 0 255
87 0 255
58 0 255
0 0 255
78 0 255
9 0 255
19 0 255
48 0 255
58 0 255
9 0 255
87 0 255
58 0 255
39 0 255
97 0 255
9 0 255
39 0 255
58 0 255
9 0 255
9 0 255
0 0 255
19 0 255
0 0 255
9 0 255
78 0 255
78 0 255
87 0 255
19 0 255
87 0 255
19 0 255
19 0 255
58 0 255
48 0 255
78 0 255
58 0 255
97 0 255
0 0 255
87 0 255
78 0 255
87 0 255
87 0 255
19 0 255
39 0 255
78 0 255
97 0 255
58 0 255
78 0 255
9 0 255
39 0 255
9 0 255
9 0 255
9 0 255
78 0 255
97 0 255
0 0 255
39 0 255
97 0 255
78 0 255
48 0 255
48 0 255
39 0 255
19 0 255
97 0 255
58 0 255
9 0 255
58 0 255
58 0 255
9 0 255
78 0 255
58 0 255
9 0 255
48 0 255
48 0 255
39 0 255
39 0 255
9 0 255
39 0 255
19 0 255
9 0 255
19 0 255
48 0 255
0 0 255
19 0 255
97 0 255
58 0 255
97 0 255
19 0 255
39 0 255
48 0 255
58 0 255
78 0 255
78 0 255
97 0 255
9 0 255
39 0 255
48 0 255
39 0 255
48 0 255
48 0 255
87 0 255
78 0 255
87 0 255
39 0 255
9 0 255
78 0 255
0 0 255
19 0 255
48 0 255
19 0 255
0 0 255
48 0 255
48 0 255
78 0 255
87 0 255
48 0 255
48 0 255
9 0 255
0 0 255
58 0 255
48 0 255
19 0 255
87 0 255
0 0 255
48 0 255
19 0 255
0 0 255
78 0 255
87 0 255
48 0 255
58 0 255
87 0 255
48 0 255
58 0 255
19 0 255
87 0 255
39 0 255
87 0 255
87 0 255
19 0 255
9 0 255
87 0 255
87 0 255
19 0 255
0 0 255
48 0 255
9 0 255
0 0 255
0 0 255
0 0 255
9 0 255
39 0 255
78 0 255
97 0 255
19 0 255
19 0 255
87 0 255
0 0 255
97 0 255
87 0 255
87 0 255
58 0 255
97 0 255
87 0 255
39 0 255
48 0 255
39 0 255
19 0 255
48 0 255
58 0 255
87 0 255
19 0 255
0 0 255
19 0 255
0 0 255
97 0 255
58 0 255
