P3
64 64
255
216 0 0
168 0 0
168 0 0
177 0 0
158 0 0
197 0 0
246 0 0
216 0 0
197 0 0
207 0 0
177 0 0
207 0 0
246 0 0
246 0 0
197 0 0
216 0 0
255 0 0
207 0 0
168 0 0
207 0 0
216 0 0
207 0 0
236 0 0
158 0 0
207 0 0
246 0 0
177 0 0
197 0 0
158 0 0
177 0 0
168 0 0
246 0 0
158 0 0
216 0 0
158 0 0
158 0 0
246 0 0
246 0 0
207 0 0
207 0 0
168 0 0
168 0 0
177 0 0
255 0 0
255 0 0
177 0 0
207 0 0
216 0 0
207 0 0
168 0 0
255 0 0
246 0 0
168 0 0
168 0 0
216 0 0
207 0 0
236 0 0
236 0 0
197 0 0
236 0 0
207 0 0
255 0 0
177 0 0
246 0 0
207 0 0
168 0 0
246 0 0
236 0 0
207 0 0
236 0 0
197 0 0
216 0 0
197 0 0
207 0 0
207 0 0
255 0 0
236 0 0
207 0 0
177 0 0
207 0 0
216 0 0
207 0 0
216 0 0
255 0 0
207 0 0
158 0 0
236 0 0
177 0 0
255 0 0
236 0 0
236 0 0
255 0 0
236 0 0
197 0 0
255 0 0
168 0 0
246 0 0
207 0 0
207 0 0
216 0 0
177 0 0
236 0 0
168 0 0
255 0 0
236 0 0
207 0 0
207 0 0
207 0 0
207 0 0
197 0 0
246 0 0
236 0 0
236 0 0
246 0 0
216 0 0
236 0 0
207 0 0
197 0 0
177 0 0
177 0 0
177 0 0
158 0 0
207 0 0
246 0 0
246 0 0
177 0 0
168 0 0
246 0 0
177 0 0
177 0 0
236 0 0
236 0 0
236 0 0
168 0 0
255 0 0
216 0 0
216 0 0
197 0 0
236 0 0
177 0 0
236 0 0
246 0 0
158 0 0
216 0 0
207 0 0
177 0 0
207 0 0
255 0 0
255 0 0
168 0 0
158 0 0
207 0 0
246 0 0
197 0 0
246 0 0
207 0 0
158 0 0
177 0 0
207 0 0
197 0 0
207 0 0
168 0 0
236 0 0
236 0 0
168 0 0
177 0 0
158 0 0
207 0 0
236 0 0
177 0 0
207 0 0
177 0 0
158 0 0
168 0 0
216 0 0
255 0 0
246 0 0
216 0 0
236 0 0
168 0 0
207 0 0
207 0 0
158 0 0
197 0 0
158 0 0
207 0 0
168 0 0
246 0 0
216 0 0
216 0 0
216 0 0
255 0 0
177 0 0
207 0 0
177 0 0
158 0 0
197 0 0
197 0 0
168 0 0
177 0 0
207 0 0
236 0 0
197 0 0
236 0 0
236 0 0
168 0 0
168 0 0
197 0 0
236 0 0
207 0 0
246 0 0
216 0 0
207 0 0
197 0 0
158 0 0
216 0 0
236 0 0
207 0 0
197 0 0
207 0 0
207 0 0
158 0 0
158 0 0
207 0 0
246 0 0
158 0 0
246 0 0
255 0 0
177 0 0
158 0 0
207 0 0
255 0 0
158 0 0
168 0 0
168 0 0
207 0 0
255 0 0
177 0 0
177 0 0
207 0 0
246 0 0
197 0 0
216 0 0
207 0 0
255 0 0
168 0 0
197 0 0
168 0 0
255 0 0
236 0 0
158 0 0
207 0 0
216 0 0
207 0 0
207 0 0
216 0 0
236 0 0
207 0 0
158 0 0
236 0 0
216 0 0
197 0 0
246 0 0
246 0 0
207 0 0
158 0 0
216 0 0
236 0 0
207 0 0
216 0 0
255 0 0
197 0 0
246 0 0
236 0 0
246 0 0
207 0 0
255 0 0
236 0 0
216 0 0
255 0 0
236 0 0
168 0 0
207 0 0
197 0 0
236 0 0
168 0 0
255 0 0
168 0 0
216 0 0
216 0 0
246 0 0
207 0 0
177 0 0
255 0 0
158 0 0
255 0 0
236 0 0
168 0 0
197 0 0
255 0 0
255 0 0
197 0 0
158 0 0
177 0 0
207 0 0
216 0 0
207 0 0
207 0 0
177 0 0
255 0 0
168 0 0
177 0 0
197 0 0
246 0 0
207 0 0
246 0 0
216 0 0
177 0 0
255 0 0
207 0 0
255 0 0
168 0 0
255 0 0
246 0 0
236 0 0
158 0 0
236 0 0
197 0 0
177 0 0
177 0 0
168 0 0
158 0 0
207 0 0
207 0 0
168 0 0
216 0 0
197 0 0
197 0 0
255 0 0
236 0 0
255 0 0
168 0 0
216 0 0
168 0 0
236 0 0
158 0 0
197 0 0
177 0 0
246 0 0
255 0 0
255 0 0
255 0 0
177 0 0
255 0 0
207 0 0
177 0 0
168 0 0
197 0 0
168 0 0
216 0 0
158 0 0
177 0 0
197 0 0
246 0 0
216 0 0
255 0 0
197 0 0
207 0 0
246 0 0
246 0 0
236 0 0
255 0 0
236 0 0
207 0 0
177 0 0
197 0 0
255 0 0
246 0 0
158 0 0
207 0 0
177 0 0
177 0 0
207 0 0
168 0 0
168 0 0
197 0 0
197 0 0
177 0 0
236 0 0
177 0 0
177 0 0
177 0 0
207 0 0
177 0 0
207 0 0
236 0 0
197 0 0
246 0 0
168 0 0
207 0 0
255 0 0
216 0 0
216 0 0
246 0 0
216 0 0
197 0 0
207 0 0
197 0 0
207 0 0
207 0 0
255 0 0
255 0 0
246 0 0
168 0 0
216 0 0
207 0 0
158 0 0
207 0 0
246 0 0
207 0 0
216 0 0
255 0 0
197 0 0
207 0 0
207 0 0
207 0 0
236 0 0
236 0 0
207 0 0
207 0 0
168 0 0
255 0 0
207 0 0
216 0 0
236 0 0
177 0 0
236 0 0
158 0 0
236 0 0
255 0 0
207 0 0
207 0 0
168 0 0
246 0 0
246 0 0
236 0 0
255 0 0
158 0 0
246 0 0
197 0 0
255 0 0
168 0 0
197 0 0
168 0 0
158 0 0
197 0 0
236 0 0
158 0 0
177 0 0
246 0 0
236 0 0
246 0 0
197 0 0
207 0 0
168 0 0
168 0 0
207 0 0
197 0 0
207 0 0
197 0 0
246 0 0
246 0 0
207 0 0
158 0 0
177 0 0
177 0 0
207 0 0
168 0 0
207 0 0
158 0 0
197 0 0
177 0 0
207 0 0
255 0 0
207 0 0
207 0 0
236 0 0
236 0 0
236 0 0
207 0 0
168 0 0
236 0 0
216 0 0
255 0 0
177 0 0
246 0 0
246 0 0
168 0 0
158 0 0
236 0 0
158 0 0
255 0 0
177 0 0
207 0 0
207 0 0
246 0 0
197 0 0
168 0 0
197 0 0
255 0 0
255 0 0
216 0 0
216 0 0
236 0 0
207 0 0
177 0 0
207 0 0
255 0 0
255 0 0
177 0 0
197 0 0
207 0 0
168 0 0
177 0 0
158 0 0
255 0 0
158 0 0
177 0 0
246 0 0
207 0 0
168 0 0
255 0 0
236 0 0
158 0 0
158 0 0
236 0 0
197 0 0
168 0 0
197 0 0
216 0 0
246 0 0
197 0 0
216 0 0
255 0 0
168 0 0
255 0 0
246 0 0
246 0 0
255 0 0
207 0 0
168 0 0
246 0 0
246 0 0
168 0 0
197 0 0
236 0 0
197 0 0
158 0 0
236 0 0
236 0 0
168 0 0
168 0 0
158 0 0
236 0 0
236 0 0
255 0 0
236 0 0
255 0 0
197 0 0
207 0 0
236 0 0
216 0 0
177 0 0
168 0 0
216 0 0
255 0 0
197 0 0
168 0 0
207 0 0
177 0 0
177 0 0
216 0 0
197 0 0
158 0 0
216 0 0
236 0 0
168 0 0
168 0 0
177 0 0
216 0 0
246 0 0
207 0 0
236 0 0
177 0 0
158 0 0
168 0 0
246 0 0
177 0 0
207 0 0
197 0 0
236 0 0
197 0 0
246 0 0
207 0 0
207 0 0
158 0 0
197 0 0
255 0 0
177 0 0
168 0 0
168 0 0
236 0 0
207 0 0
197 0 0
197 0 0
197 0 0
246 0 0
197 0 0
158 0 0
207 0 0
197 0 0
177 0 0
177 0 0
236 0 0
216 0 0
177 0 0
216 0 0
158 0 0
246 0 0
216 0 0
246 0 0
158 0 0
177 0 0
246 0 0
168 0 0
207 0 0
197 0 0
246 0 0
207 0 0
207 0 0
216 0 0
197 0 0
197 0 0
168 0 0
197 0 0
236 0 0
255 0 0
168 0 0
168 0 0
197 0 0
177 0 0
177 0 0
177 0 0
207 0 0
207 0 0
236 0 0
177 0 0
168 0 0
216 0 0
246 0 0
197 0 0
168 0 0
158 0 0
207 0 0
158 0 0
236 0 0
168 0 0
177 0 0
246 0 0
246 0 0
197 0 0
216 0 0
236 0 0
236 0 0
216 0 0
236 0 0
255 0 0
177 0 0
197 0 0
255 0 0
207 0 0
197 0 0
216 0 0
207 0 0
216 0 0
207 0 0
236 0 0
236 0 0
207 0 0
255 0 0
216 0 0
236 0 0
177 0 0
207 0 0
197 0 0
177 0 0
255 0 0
168 0 0
197 0 0
246 0 0
177 0 0
216 0 0
236 0 0
177 0 0
246 0 0
158 0 0
177 0 0
216 0 0
168 0 0
216 0 0
207 0 0
255 0 0
207 0 0
216 0 0
207 0 0
177 0 0
158 0 0
168 0 0
246 0 0
197 0 0
158 0 0
168 0 0
255 0 0
236 0 0
255 0 0
255 0 0
168 0 0
168 0 0
177 0 0
168 0 0
236 0 0
177 0 0
168 0 0
207 0 0
216 0 0
207 0 0
177 0 0
168 0 0
207 0 0
236 0 0
255 0 0
255 0 0
158 0 0
168 0 0
246 0 0
236 0 0
236 0 0
197 0 0
207 0 0
216 0 0
246 0 0
207 0 0
246 0 0
236 0 0
207 0 0
246 0 0
168 0 0
216 0 0
207 0 0
207 0 0
177 0 0
216 0 0
197 0 0
246 0 0
158 0 0
197 0 0
246 0 0
255 0 0
216 0 0
216 0 0
255 0 0
207 0 0
177 0 0
207 0 0
207 0 0
168 0 0
177 0 0
236 0 0
207 0 0
168 0 0
207 0 0
158 0 0
216 0 0
216 0 0
255 0 0
177 0 0
207 0 0
177 0 0
168 0 0
216 0 0
207 0 0
158 0 0
177 0 0
197 0 0
236 0 0
236 0 0
216 0 0
246 0 0
207 0 0
216 0 0
236 0 0
216 0 0
246 0 0
207 0 0
216 0 0
177 0 0
177 0 0
246 0 0
207 0 0
168 0 0
255 0 0
236 0 0
207 0 0
255 0 0
197 0 0
207 0 0
246 0 0
216 0 0
246 0 0
177 0 0
177 0 0
197 0 0
197 0 0
216 0 0
216 0 0
207 0 0
158 0 0
255 0 0
168 0 0
216 0 0
197 0 0
168 0 0
168 0 0
236 0 0
177 0 0
255 0 0
197 0 0
236 0 0
197 0 0
168 0 0
168 0 0
236 0 0
168 0 0
216 0 0
236 0 0
216 0 0
177 0 0
168 0 0
197 0 0
207 0 0
177 0 0
158 0 0
246 0 0
236 0 0
216 0 0
207 0 0
158 0 0
197 0 0
158 0 0
255 0 0
207 0 0
216 0 0
207 0 0
197 0 0
246 0 0
236 0 0
246 0 0
207 0 0
207 0 0
216 0 0
168 0 0
236 0 0
246 0 0
197 0 0
207 0 0
158 0 0
177 0 0
168 0 0
207 0 0
197 0 0
255 0 0
255 0 0
158 0 0
168 0 0
177 0 0
197 0 0
255 0 0
255 0 0
207 0 0
246 0 0
177 0 0
216 0 0
255 0 0
246 0 0
255 0 0
236 0 0
168 0 0
255 0 0
216 0 0
207 0 0
255 0 0
236 0 0
177 0 0
197 0 0
168 0 0
197 0 0
197 0 0
207 0 0
197 0 0
255 0 0
158 0 0
207 0 0
255 0 0
207 0 0
255 0 0
255 0 0
236 0 0
216 0 0
246 0 0
158 0 0
207 0 0
158 0 0
236 0 0
168 0 0
246 0 0
177 0 0
177 0 0
197 0 0
197 0 0
168 0 0
255 0 0
197 0 0
236 0 0
207 0 0
255 0 0
177 0 0
168 0 0
158 0 0
177 0 0
177 0 0
207 0 0
197 0 0
197 0 0
236 0 0
216 0 0
207 0 0
207 0 0
177 0 0
168 0 0
216 0 0
177 0 0
168 0 0
177 0 0
246 0 0
168 0 0
207 0 0
168 0 0
216 0 0
168 0 0
168 0 0
177 0 0
207 0 0
207 0 0
255 0 0
207 0 0
158 0 0
255 0 0
158 0 0
177 0 0
207 0 0
197 0 0
255 0 0
216 0 0
207 0 0
197 0 0
177 0 0
207 0 0
168 0 0
168 0 0
197 0 0
177 0 0
207 0 0
246 0 0
168 0 0
236 0 0
177 0 0
158 0 0
246 0 0
246 0 0
158 0 0
207 0 0
216 0 0
207 0 0
207 0 0
216 0 0
236 0 0
246 0 0
177 0 0
216 0 0
158 0 0
216 0 0
216 0 0
207 0 0
177 0 0
236 0 0
246 0 0
255 0 0
158 0 0
207 0 0
246 0 0
158 0 0
177 0 0
216 0 0
207 0 0
197 0 0
197 0 0
177 0 0
255 0 0
255 0 0
168 0 0
168 0 0
168 0 0
246 0 0
216 0 0
255 0 0
177 0 0
177 0 0
255 0 0
255 0 0
158 0 0
177 0 0
246 0 0
207 0 0
177 0 0
236 0 0
207 0 0
236 0 0
177 0 0
168 0 0
168 0 0
207 0 0
197 0 0
236 0 0
255 0 0
158 0 0
236 0 0
236 0 0
197 0 0
197 0 0
168 0 0
207 0 0
216 0 0
255 0 0
197 0 0
236 0 0
207 0 0
197 0 0
246 0 0
207 0 0
158 0 0
197 0 0
177 0 0
236 0 0
255 0 0
207 0 0
236 0 0
255 0 0
158 0 0
197 0 0
236 0 0
177 0 0
177 0 0
168 0 0
216 0 0
168 0 0
168 0 0
207 0 0
207 0 0
246 0 0
246 0 0
236 0 0
216 0 0
216 0 0
158 0 0
197 0 0
168 0 0
236 0 0
236 0 0
236 0 0
207 0 0
177 0 0
216 0 0
158 0 0
216 0 0
216 0 0
207 0 0
207 0 0
197 0 0
168 0 0
255 0 0
236 0 0
255 0 0
177 0 0
168 0 0
197 0 0
197 0 0
168 0 0
207 0 0
255 0 0
236 0 0
168 0 0
236 0 0
216 0 0
255 0 0
236 0 0
197 0 0
216 0 0
168 0 0
197 0 0
207 0 0
255 0 0
158 0 0
168 0 0
177 0 0
255 0 0
236 0 0
216 0 0
197 0 0
246 0 0
255 0 0
246 0 0
207 0 0
216 0 0
197 0 0
197 0 0
177 0 0
158 0 0
216 0 0
207 0 0
216 0 0
255 0 0
177 0 0
168 0 0
236 0 0
255 0 0
207 0 0
236 0 0
216 0 0
158 0 0
177 0 0
177 0 0
168 0 0
216 0 0
255 0 0
236 0 0
207 0 0
177 0 0
216 0 0
207 0 0
246 0 0
168 0 0
168 0 0
197 0 0
255 0 0
197 0 0
168 0 0
236 0 0
177 0 0
177 0 0
236 0 0
216 0 0
207 0 0
197 0 0
158 0 0
207 0 0
168 0 0
236 0 0
216 0 0
246 0 0
216 0 0
207 0 0
177 0 0
216 0 0
177 0 0
177 0 0
246 0 0
158 0 0
177 0 0
168 0 0
255 0 0
207 0 0
255 0 0
246 0 0
207 0 0
236 0 0
236 0 0
168 0 0
207 0 0
246 0 0
158 0 0
216 0 0
216 0 0
216 0 0
207 0 0
207 0 0
207 0 0
236 0 0
197 0 0
168 0 0
168 0 0
216 0 0
255 0 0
246 0 0
255 0 0
158 0 0
207 0 0
255 0 0
246 0 0
255 0 0
236 0 0
207 0 0
207 0 0
177 0 0
216 0 0
197 0 0
177 0 0
158 0 0
216 0 0
207 0 0
236 0 0
177 0 0
207 0 0
255 0 0
168 0 0
236 0 0
197 0 0
255 0 0
158 0 0
207 0 0
197 0 0
236 0 0
236 0 0
246 0 0
246 0 0
168 0 0
236 0 0
168 0 0
207 0 0
197 0 0
168 0 0
216 0 0
158 0 0
246 0 0
168 0 0
236 0 0
207 0 0
255 0 0
177 0 0
236 0 0
197 0 0
207 0 0
168 0 0
168 0 0
207 0 0
255 0 0
177 0 0
246 0 0
255 0 0
255 0 0
236 0 0
236 0 0
207 0 0
246 0 0
158 0 0
207 0 0
207 0 0
207 0 0
236 0 0
255 0 0
246 0 0
207 0 0
236 0 0
168 0 0
246 0 0
216 0 0
246 0 0
177 0 0
177 0 0
197 0 0
197 0 0
216 0 0
207 0 0
177 0 0
168 0 0
236 0 0
207 0 0
177 0 0
197 0 0
168 0 0
177 0 0
207 0 0
216 0 0
255 0 0
197 0 0
197 0 0
216 0 0
207 0 0
216 0 0
158 0 0
177 0 0
207 0 0
236 0 0
246 0 0
197 0 0
255 0 0
207 0 0
236 0 0
246 0 0
236 0 0
207 0 0
216 0 0
207 0 0
236 0 0
216 0 0
177 0 0
158 0 0
236 0 0
236 0 0
207 0 0
246 0 0
246 0 0
207 0 0
255 0 0
197 0 0
158 0 0
168 0 0
216 0 0
216 0 0
236 0 0
177 0 0
246 0 0
216 0 0
197 0 0
158 0 0
246 0 0
236 0 0
246 0 0
197 0 0
255 0 0
158 0 0
236 0 0
158 0 0
236 0 0
255 0 0
236 0 0
236 0 0
197 0 0
216 0 0
246 0 0
168 0 0
216 0 0
158 0 0
207 0 0
255 0 0
207 0 0
216 0 0
177 0 0
158 0 0
207 0 0
207 0 0
246 0 0
168 0 0
216 0 0
236 0 0
177 0 0
197 0 0
168 0 0
207 0 0
207 0 0
236 0 0
177 0 0
216 0 0
158 0 0
197 0 0
207 0 0
255 0 0
207 0 0
236 0 0
168 0 0
207 0 0
236 0 0
197 0 0
177 0 0
197 0 0
236 0 0
255 0 0
216 0 0
216 0 0
236 0 0
158 0 0
197 0 0
255 0 0
236 0 0
255 0 0
216 0 0
255 0 0
255 0 0
246 0 0
216 0 0
236 0 0
216 0 0
255 0 0
168 0 0
207 0 0
255 0 0
197 0 0
168 0 0
207 0 0
255 0 0
246 0 0
168 0 0
236 0 0
197 0 0
197 0 0
207 0 0
216 0 0
246 0 0
177 0 0
197 0 0
207 0 0
236 0 0
177 0 0
177 0 0
236 0 0
207 0 0
168 0 0
255 0 0
246 0 0
168 0 0
216 0 0
236 0 0
168 0 0
177 0 0
197 0 0
158 0 0
197 0 0
158 0 0
177 0 0
168 0 0
246 0 0
207 0 0
236 0 0
168 0 0
158 0 0
158 0 0
216 0 0
255 0 0
177 0 0
168 0 0
255 0 0
207 0 0
168 0 0
158 0 0
207 0 0
216 0 0
207 0 0
158 0 0
168 0 0
177 0 0
207 0 0
207 0 0
168 0 0
216 0 0
207 0 0
197 0 0
168 0 0
197 0 0
158 0 0
168 0 0
168 0 0
197 0 0
255 0 0
207 0 0
197 0 0
177 0 0
168 0 0
207 0 0
197 0 0
177 0 0
236 0 0
158 0 0
216 0 0
177 0 0
246 0 0
236 0 0
168 0 0
197 0 0
236 0 0
246 0 0
177 0 0
207 0 0
197 0 0
168 0 0
168 0 0
236 0 0
255 0 0
255 0 0
216 0 0
255 0 0
216 0 0
216 0 0
255 0 0
158 0 0
236 0 0
197 0 0
197 0 0
177 0 0
168 0 0
236 0 0
236 0 0
168 0 0
197 0 0
207 0 0
216 0 0
236 0 0
207 0 0
207 0 0
158 0 0
246 0 0
177 0 0
158 0 0
236 0 0
158 0 0
246 0 0
207 0 0
197 0 0
216 0 0
207 0 0
216 0 0
246 0 0
246 0 0
168 0 0
246 0 0
177 0 0
158 0 0
158 0 0
177 0 0
255 0 0
197 0 0
207 0 0
197 0 0
236 0 0
177 0 0
255 0 0
246 0 0
207 0 0
255 0 0
158 0 0
158 0 0
255 0 0
168 0 0
158 0 0
168 0 0
255 0 0
177 0 0
207 0 0
177 0 0
207 0 0
158 0 0
207 0 0
168 0 0
236 0 0
197 0 0
246 0 0
216 0 0
177 0 0
216 0 0
236 0 0
236 0 0
207 0 0
207 0 0
197 0 0
158 0 0
236 0 0
236 0 0
177 0 0
207 0 0
207 0 0
246 0 0
177 0 0
236 0 0
168 0 0
216 0 0
255 0 0
216 0 0
168 0 0
197 0 0
216 0 0
197 0 0
207 0 0
177 0 0
197 0 0
246 0 0
236 0 0
236 0 0
207 0 0
216 0 0
236 0 0
216 0 0
177 0 0
207 0 0
168 0 0
255 0 0
246 0 0
255 0 0
168 0 0
236 0 0
207 0 0
168 0 0
177 0 0
177 0 0
207 0 0
236 0 0
216 0 0
177 0 0
158 0 0
216 0 0
236 0 0
255 0 0
197 0 0
207 0 0
177 0 0
236 0 0
158 0 0
236 0 0
236 0 0
255 0 0
216 0 0
207 0 0
216 0 0
255 0 0
236 0 0
158 0 0
177 0 0
207 0 0
236 0 0
207 0 0
197 0 0
168 0 0
158 0 0
255 0 0
236 0 0
197 0 0
168 0 0
246 0 0
197 0 0
168 0 0
168 0 0
216 0 0
216 0 0
168 0 0
216 0 0
177 0 0
168 0 0
246 0 0
236 0 0
216 0 0
177 0 0
197 0 0
216 0 0
197 0 0
177 0 0
236 0 0
207 0 0
255 0 0
246 0 0
207 0 0
158 0 0
177 0 0
197 0 0
255 0 0
177 0 0
197 0 0
177 0 0
216 0 0
158 0 0
246 0 0
236 0 0
197 0 0
216 0 0
207 0 0
216 0 0
168 0 0
255 0 0
207 0 0
168 0 0
158 0 0
255 0 0
168 0 0
197 0 0
207 0 0
168 0 0
246 0 0
207 0 0
207 0 0
207 0 0
177 0 0
197 0 0
168 0 0
168 0 0
236 0 0
207 0 0
216 0 0
168 0 0
177 0 0
246 0 0
255 0 0
168 0 0
246 0 0
236 0 0
168 0 0
236 0 0
207 0 0
236 0 0
177 0 0
216 0 0
255 0 0
255 0 0
197 0 0
158 0 0
168 0 0
158 0 0
207 0 0
246 0 0
216 0 0
236 0 0
255 0 0
216 0 0
246 0 0
236 0 0
255 0 0
246 0 0
197 0 0
158 0 0
168 0 0
207 0 0
207 0 0
236 0 0
207 0 0
168 0 0
177 0 0
216 0 0
255 0 0
216 0 0
246 0 0
255 0 0
236 0 0
177 0 0
168 0 0
168 0 0
207 0 0
255 0 0
216 0 0
207 0 0
207 0 0
168 0 0
158 0 0
177 0 0
177 0 0
207 0 0
177 0 0
168 0 0
197 0 0
197 0 0
246 0 0
177 0 0
236 0 0
255 0 0
236 0 0
197 0 0
168 0 0
177 0 0
207 0 0
168 0 0
177 0 0
168 0 0
246 0 0
168 0 0
236 0 0
177 0 0
177 0 0
207 0 0
177 0 0
177 0 0
168 0 0
255 0 0
168 0 0
246 0 0
246 0 0
246 0 0
207 0 0
255 0 0
236 0 0
177 0 0
158 0 0
168 0 0
246 0 0
216 0 0
246 0 0
255 0 0
168 0 0
255 0 0
177 0 0
207 0 0
168 0 0
207 0 0
207 0 0
207 0 0
246 0 0
207 0 0
168 0 0
197 0 0
197 0 0
177 0 0
236 0 0
216 0 0
236 0 0
177 0 0
197 0 0
177 0 0
207 0 0
177 0 0
255 0 0
197 0 0
158 0 0
177 0 0
197 0 0
197 0 0
246 0 0
197 0 0
168 0 0
168 0 0
236 0 0
255 0 0
246 0 0
207 0 0
246 0 0
197 0 0
255 0 0
216 0 0
158 0 0
207 0 0
177 0 0
246 0 0
216 0 0
158 0 0
197 0 0
177 0 0
177 0 0
197 0 0
158 0 0
236 0 0
216 0 0
197 0 0
177 0 0
168 0 0
236 0 0
158 0 0
177 0 0
197 0 0
168 0 0
236 0 0
216 0 0
246 0 0
255 0 0
168 0 0
177 0 0
216 0 0
177 0 0
236 0 0
255 0 0
246 0 0
255 0 0
246 0 0
216 0 0
246 0 0
197 0 0
207 0 0
246 0 0
207 0 0
168 0 0
197 0 0
177 0 0
255 0 0
158 0 0
236 0 0
168 0 0
236 0 0
207 0 0
197 0 0
236 0 0
158 0 0
207 0 0
168 0 0
207 0 0
168 0 0
158 0 0
168 0 0
236 0 0
207 0 0
207 0 0
197 0 0
236 0 0
236 0 0
207 0 0
246 0 0
236 0 0
197 0 0
207 0 0
255 0 0
177 0 0
158 0 0
255 0 0
255 0 0
207 0 0
168 0 0
168 0 0
207 0 0
207 0 0
197 0 0
236 0 0
255 0 0
207 0 0
207 0 0
236 0 0
255 0 0
197 0 0
236 0 0
207 0 0
246 0 0
236 0 0
246 0 0
177 0 0
236 0 0
158 0 0
158 0 0
216 0 0
216 0 0
236 0 0
168 0 0
236 0 0
207 0 0
246 0 0
216 0 0
207 0 0
168 0 0
255 0 0
236 0 0
168 0 0
255 0 0
236 0 0
158 0 0
236 0 0
255 0 0
168 0 0
177 0 0
246 0 0
177 0 0
246 0 0
197 0 0
236 0 0
246 0 0
177 0 0
168 0 0
246 0 0
158 0 0
216 0 0
168 0 0
158 0 0
158 0 0
246 0 0
177 0 0
177 0 0
255 0 0
158 0 0
207 0 0
236 0 0
207 0 0
158 0 0
207 0 0
168 0 0
197 0 0
255 0 0
246 0 0
207 0 0
197 0 0
216 0 0
168 0 0
236 0 0
207 0 0
216 0 0
236 0 0
158 0 0
216 0 0
255 0 0
246 0 0
168 0 0
158 0 0
177 0 0
207 0 0
207 0 0
216 0 0
168 0 0
236 0 0
168 0 0
168 0 0
207 0 0
197 0 0
246 0 0
177 0 0
177 0 0
216 0 0
207 0 0
168 0 0
168 0 0
177 0 0
197 0 0
207 0 0
197 0 0
168 0 0
207 0 0
197 0 0
158 0 0
158 0 0
246 0 0
236 0 0
158 0 0
197 0 0
168 0 0
177 0 0
255 0 0
207 0 0
168 0 0
246 0 0
197 0 0
197 0 0
177 0 0
216 0 0
168 0 0
236 0 0
216 0 0
207 0 0
168 0 0
207 0 0
177 0 0
255 0 0
246 0 0
236 0 0
207 0 0
255 0 0
255 0 0
255 0 0
158 0 0
177 0 0
246 0 0
236 0 0
255 0 0
197 0 0
168 0 0
236 0 0
216 0 0
158 0 0
207 0 0
158 0 0
168 0 0
216 0 0
207 0 0
236 0 0
197 0 0
197 0 0
246 0 0
197 0 0
158 0 0
197 0 0
216 0 0
255 0 0
216 0 0
246 0 0
216 0 0
177 0 0
216 0 0
255 0 0
158 0 0
255 0 0
246 0 0
255 0 0
246 0 0
246 0 0
177 0 0
177 0 0
255 0 0
197 0 0
216 0 0
168 0 0
207 0 0
246 0 0
207 0 0
168 0 0
207 0 0
177 0 0
236 0 0
207 0 0
255 0 0
197 0 0
255 0 0
197 0 0
197 0 0
255 0 0
255 0 0
177 0 0
236 0 0
197 0 0
197 0 0
207 0 0
168 0 0
207 0 0
236 0 0
207 0 0
216 0 0
207 0 0
255 0 0
216 0 0
246 0 0
168 0 0
207 0 0
216 0 0
216 0 0
168 0 0
158 0 0
177 0 0
246 0 0
158 0 0
158 0 0
197 0 0
207 0 0
216 0 0
246 0 0
255 0 0
207 0 0
207 0 0
246 0 0
216 0 0
236 0 0
158 0 0
236 0 0
158 0 0
216 0 0
216 0 0
168 0 0
207 0 0
168 0 0
207 0 0
168 0 0
158 0 0
197 0 0
236 0 0
207 0 0
255 0 0
246 0 0
158 0 0
216 0 0
197 0 0
197 0 0
158 0 0
255 0 0
216 0 0
168 0 0
216 0 0
207 0 0
177 0 0
236 0 0
177 0 0
236 0 0
197 0 0
236 0 0
207 0 0
236 0 0
207 0 0
197 0 0
158 0 0
158 0 0
255 0 0
168 0 0
207 0 0
216 0 0
246 0 0
216 0 0
207 0 0
255 0 0
216 0 0
255 0 0
207 0 0
216 0 0
246 0 0
158 0 0
236 0 0
216 0 0
236 0 0
246 0 0
207 0 0
168 0 0
207 0 0
177 0 0
246 0 0
246 0 0
197 0 0
168 0 0
207 0 0
236 0 0
177 0 0
236 0 0
236 0 0
216 0 0
255 0 0
197 0 0
246 0 0
177 0 0
255 0 0
255 0 0
168 0 0
246 0 0
216 0 0
216 0 0
246 0 0
246 0 0
207 0 0
255 0 0
168 0 0
168 0 0
197 0 0
168 0 0
236 0 0
246 0 0
255 0 0
168 0 0
236 0 0
216 0 0
246 0 0
236 0 0
168 0 0
158 0 0
197 0 0
246 0 0
255 0 0
207 0 0
246 0 0
168 0 0
197 0 0
207 0 0
216 0 0
197 0 0
207 0 0
207 0 0
207 0 0
168 0 0
216 0 0
255 0 0
197 0 0
246 0 0
158 0 0
236 0 0
168 0 0
168 0 0
207 0 0
197 0 0
255 0 0
177 0 0
216 0 0
236 0 0
216 0 0
207 0 0
236 0 0
197 0 0
207 0 0
255 0 0
216 0 0
207 0 0
158 0 0
207 0 0
216 0 0
177 0 0
197 0 0
207 0 0
197 0 0
246 0 0
236 0 0
216 0 0
168 0 0
246 0 0
168 0 0
177 0 0
255 0 0
246 0 0
197 0 0
197 0 0
236 0 0
216 0 0
177 0 0
197 0 0
236 0 0
255 0 0
168 0 0
207 0 0
158 0 0
177 0 0
177 0 0
236 0 0
255 0 0
236 0 0
236 0 0
177 0 0
236 0 0
216 0 0
168 0 0
216 0 0
255 0 0
255 0 0
246 0 0
197 0 0
246 0 0
207 0 0
177 0 0
168 0 0
207 0 0
255 0 0
197 0 0
216 0 0
177 0 0
207 0 0
158 0 0
236 0 0
216 0 0
168 0 0
246 0 0
246 0 0
197 0 0
207 0 0
216 0 0
207 0 0
207 0 0
246 0 0
177 0 0
168 0 0
177 0 0
168 0 0
255 0 0
207 0 0
158 0 0
255 0 0
216 0 0
216 0 0
197 0 0
236 0 0
255 0 0
197 0 0
168 0 0
216 0 0
216 0 0
158 0 0
197 0 0
216 0 0
216 0 0
197 0 0
158 0 0
207 0 0
236 0 0
207 0 0
207 0 0
177 0 0
255 0 0
197 0 0
216 0 0
246 0 0
236 0 0
255 0 0
158 0 0
197 0 0
168 0 0
246 0 0
177 0 0
255 0 0
158 0 0
246 0 0
246 0 0
177 0 0
197 0 0
197 0 0
236 0 0
207 0 0
158 0 0
207 0 0
207 0 0
168 0 0
177 0 0
255 0 0
216 0 0
207 0 0
216 0 0
158 0 0
216 0 0
177 0 0
255 0 0
177 0 0
236 0 0
246 0 0
207 0 0
255 0 0
158 0 0
216 0 0
207 0 0
197 0 0
216 0 0
216 0 0
207 0 0
177 0 0
207 0 0
168 0 0
207 0 0
246 0 0
168 0 0
197 0 0
207 0 0
246 0 0
207 0 0
216 0 0
207 0 0
158 0 0
236 0 0
246 0 0
236 0 0
197 0 0
158 0 0
158 0 0
177 0 0
207 0 0
207 0 0
246 0 0
236 0 0
236 0 0
177 0 0
197 0 0
177 0 0
216 0 0
236 0 0
216 0 0
207 0 0
236 0 0
236 0 0
255 0 0
177 0 0
207 0 0
246 0 0
177 0 0
216 0 0
246 0 0
236 0 0
255 0 0
207 0 0
168 0 0
177 0 0
207 0 0
168 0 0
246 0 0
236 0 0
197 0 0
168 0 0
207 0 0
236 0 0
255 0 0
216 0 0
207 0 0
197 0 0
207 0 0
207 0 0
177 0 0
236 0 0
207 0 0
236 0 0
246 0 0
168 0 0
207 0 0
158 0 0
168 0 0
197 0 0
216 0 0
207 0 0
207 0 0
177 0 0
177 0 0
177 0 0
177 0 0
246 0 0
216 0 0
158 0 0
236 0 0
168 0 0
207 0 0
216 0 0
168 0 0
216 0 0
207 0 0
207 0 0
216 0 0
177 0 0
216 0 0
255 0 0
168 0 0
236 0 0
207 0 0
158 0 0
197 0 0
168 0 0
168 0 0
158 0 0
168 0 0
246 0 0
207 0 0
236 0 0
246 0 0
197 0 0
207 0 0
216 0 0
246 0 0
246 0 0
255 0 0
168 0 0
168 0 0
236 0 0
168 0 0
197 0 0
255 0 0
158 0 0
216 0 0
255 0 0
158 0 0
168 0 0
255 0 0
197 0 0
255 0 0
255 0 0
168 0 0
236 0 0
197 0 0
255 0 0
207 0 0
255 0 0
236 0 0
158 0 0
246 0 0
177 0 0
246 0 0
197 0 0
246 0 0
177 0 0
168 0 0
177 0 0
216 0 0
236 0 0
158 0 0
197 0 0
236 0 0
207 0 0
158 0 0
197 0 0
246 0 0
207 0 0
255 0 0
158 0 0
207 0 0
236 0 0
168 0 0
158 0 0
236 0 0
168 0 0
207 0 0
207 0 0
236 0 0
168 0 0
255 0 0
207 0 0
255 0 0
255 0 0
255 0 0
216 0 0
158 0 0
255 0 0
216 0 0
197 0 0
177 0 0
177 0 0
197 0 0
197 0 0
177 0 0
246 0 0
246 0 0
158 0 0
207 0 0
168 0 0
255 0 0
177 0 0
207 0 0
177 0 0
177 0 0
207 0 0
158 0 0
158 0 0
177 0 0
207 0 0
255 0 0
255 0 0
236 0 0
246 0 0
216 0 0
207 0 0
216 0 0
168 0 0
197 0 0
236 0 0
255 0 0
168 0 0
216 0 0
158 0 0
177 0 0
236 0 0
197 0 0
177 0 0
207 0 0
197 0 0
207 0 0
197 0 0
207 0 0
207 0 0
207 0 0
216 0 0
177 0 0
236 0 0
246 0 0
207 0 0
168 0 0
207 0 0
168 0 0
255 0 0
207 0 0
246 0 0
246 0 0
207 0 0
216 0 0
168 0 0
255 0 0
168 0 0
197 0 0
177 0 0
236 0 0
255 0 0
207 0 0
207 0 0
197 0 0
236 0 0
236 0 0
216 0 0
168 0 0
197 0 0
255 0 0
236 0 0
255 0 0
255 0 0
216 0 0
177 0 0
216 0 0
158 0 0
197 0 0
158 0 0
177 0 0
216 0 0
158 0 0
207 0 0
168 0 0
236 0 0
177 0 0
177 0 0
177 0 0
255 0 0
216 0 0
177 0 0
177 0 0
207 0 0
177 0 0
168 0 0
216 0 0
177 0 0
158 0 0
216 0 0
246 0 0
236 0 0
246 0 0
236 0 0
177 0 0
255 0 0
255 0 0
246 0 0
197 0 0
216 0 0
158 0 0
255 0 0
216 0 0
168 0 0
158 0 0
207 0 0
236 0 0
177 0 0
207 0 0
207 0 0
255 0 0
197 0 0
216 0 0
197 0 0
236 0 0
236 0 0
168 0 0
177 0 0
255 0 0
197 0 0
236 0 0
216 0 0
158 0 0
246 0 0
216 0 0
177 0 0
255 0 0
177 0 0
207 0 0
207 0 0
255 0 0
216 0 0
177 0 0
255 0 0
236 0 0
207 0 0
236 0 0
246 0 0
168 0 0
197 0 0
158 0 0
197 0 0
197 0 0
168 0 0
236 0 0
177 0 0
246 0 0
236 0 0
158 0 0
197 0 0
236 0 0
236 0 0
168 0 0
207 0 0
168 0 0
158 0 0
216 0 0
197 0 0
207 0 0
207 0 0
236 0 0
177 0 0
255 0 0
246 0 0
207 0 0
177 0 0
236 0 0
168 0 0
255 0 0
246 0 0
236 0 0
207 0 0
168 0 0
177 0 0
216 0 0
246 0 0
246 0 0
177 0 0
158 0 0
216 0 0
255 0 0
197 0 0
207 0 0
207 0 0
236 0 0
207 0 0
216 0 0
236 0 0
207 0 0
236 0 0
216 0 0
216 0 0
177 0 0
255 0 0
207 0 0
216 0 0
158 0 0
255 0 0
236 0 0
216 0 0
158 0 0
216 0 0
177 0 0
216 0 0
197 0 0
255 0 0
177 0 0
246 0 0
216 0 0
168 0 0
197 0 0
246 0 0
207 0 0
197 0 0
236 0 0
255 0 0
197 0 0
207 0 0
216 0 0
177 0 0
216 0 0
216 0 0
236 0 0
246 0 0
216 0 0
168 0 0
168 0 0
246 0 0
158 0 0
236 0 0
168 0 0
197 0 0
255 0 0
168 0 0
236 0 0
255 0 0
158 0 0
168 0 0
207 0 0
236 0 0
216 0 0
158 0 0
236 0 0
255 0 0
207 0 0
168 0 0
255 0 0
168 0 0
207 0 0
246 0 0
255 0 0
197 0 0
216 0 0
246 0 0
207 0 0
207 0 0
177 0 0
246 0 0
177 0 0
207 0 0
168 0 0
216 0 0
158 0 0
197 0 0
207 0 0
177 0 0
255 0 0
168 0 0
168 0 0
207 0 0
158 0 0
216 0 0
207 0 0
216 0 0
177 0 0
246 0 0
236 0 0
158 0 0
197 0 0
168 0 0
236 0 0
177 0 0
207 0 0
177 0 0
216 0 0
236 0 0
197 0 0
216 0 0
255 0 0
177 0 0
246 0 0
236 0 0
168 0 0
236 0 0
207 0 0
158 0 0
216 0 0
216 0 0
207 0 0
246 0 0
216 0 0
168 0 0
216 0 0
197 0 0
168 0 0
168 0 0
246 0 0
207 0 0
158 0 0
177 0 0
158 0 0
158 0 0
207 0 0
158 0 0
207 0 0
207 0 0
197 0 0
197 0 0
236 0 0
177 0 0
236 0 0
236 0 0
255 0 0
246 0 0
255 0 0
207 0 0
236 0 0
197 0 0
236 0 0
158 0 0
236 0 0
207 0 0
177 0 0
255 0 0
168 0 0
197 0 0
236 0 0
207 0 0
197 0 0
207 0 0
197 0 0
177 0 0
207 0 0
246 0 0
168 0 0
207 0 0
246 0 0
158 0 0
177 0 0
236 0 0
216 0 0
216 0 0
207 0 0
177 0 0
236 0 0
168 0 0
197 0 0
158 0 0
246 0 0
246 0 0
207 0 0
207 0 0
207 0 0
236 0 0
255 0 0
177 0 0
197 0 0
207 0 0
168 0 0
255 0 0
177 0 0
246 0 0
255 0 0
197 0 0
177 0 0
207 0 0
197 0 0
207 0 0
177 0 0
168 0 0
197 0 0
207 0 0
246 0 0
177 0 0
255 0 0
236 0 0
168 0 0
158 0 0
168 0 0
216 0 0
246 0 0
216 0 0
246 0 0
197 0 0
216 0 0
177 0 0
236 0 0
158 0 0
255 0 0
216 0 0
236 0 0
255 0 0
177 0 0
246 0 0
216 0 0
168 0 0
177 0 0
216 0 0
197 0 0
236 0 0
246 0 0
207 0 0
246 0 0
197 0 0
168 0 0
216 0 0
246 0 0
168 0 0
177 0 0
207 0 0
236 0 0
236 0 0
158 0 0
207 0 0
216 0 0
246 0 0
197 0 0
236 0 0
207 0 0
207 0 0
197 0 0
168 0 0
177 0 0
168 0 0
168 0 0
216 0 0
255 0 0
255 0 0
207 0 0
158 0 0
236 0 0
158 0 0
255 0 0
158 0 0
216 0 0
197 0 0
197 0 0
236 0 0
168 0 0
236 0 0
236 0 0
207 0 0
168 0 0
197 0 0
177 0 0
207 0 0
246 0 0
168 0 0
255 0 0
168 0 0
177 0 0
177 0 0
168 0 0
246 0 0
158 0 0
207 0 0
158 0 0
207 0 0
236 0 0
255 0 0
197 0 0
197 0 0
197 0 0
197 0 0
255 0 0
236 0 0
197 0 0
207 0 0
207 0 0
177 0 0
216 0 0
216 0 0
158 0 0
207 0 0
168 0 0
246 0 0
246 0 0
246 0 0
197 0 0
246 0 0
236 0 0
236 0 0
177 0 0
207 0 0
216 0 0
158 0 0
255 0 0
168 0 0
177 0 0
216 0 0
216 0 0
207 0 0
216 0 0
168 0 0
158 0 0
168 0 0
168 0 0
207 0 0
207 0 0
255 0 0
255 0 0
255 0 0
246 0 0
207 0 0
168 0 0
158 0 0
197 0 0
197 0 0
168 0 0
207 0 0
207 0 0
177 0 0
207 0 0
168 0 0
236 0 0
207 0 0
168 0 0
216 0 0
158 0 0
255 0 0
168 0 0
246 0 0
236 0 0
216 0 0
168 0 0
216 0 0
158 0 0
216 0 0
216 0 0
197 0 0
177 0 0
177 0 0
177 0 0
246 0 0
216 0 0
207 0 0
255 0 0
255 0 0
197 0 0
177 0 0
168 0 0
216 0 0
197 0 0
255 0 0
158 0 0
207 0 0
255 0 0
168 0 0
207 0 0
207 0 0
236 0 0
197 0 0
177 0 0
216 0 0
207 0 0
255 0 0
255 0 0
197 0 0
177 0 0
207 0 0
236 0 0
158 0 0
207 0 0
177 0 0
168 0 0
168 0 0
216 0 0
207 0 0
216 0 0
168 0 0
158 0 0
216 0 0
177 0 0
177 0 0
246 0 0
236 0 0
246 0 0
177 0 0
246 0 0
216 0 0
197 0 0
168 0 0
216 0 0
255 0 0
255 0 0
168 0 0
197 0 0
236 0 0
177 0 0
246 0 0
177 0 0
168 0 0
207 0 0
216 0 0
197 0 0
197 0 0
168 0 0
197 0 0
216 0 0
255 0 0
197 0 0
177 0 0
197 0 0
168 0 0
197 0 0
177 0 0
216 0 0
216 0 0
177 0 0
207 0 0
168 0 0
197 0 0
207 0 0
158 0 0
216 0 0
158 0 0
168 0 0
177 0 0
216 0 0
158 0 0
168 0 0
236 0 0
177 0 0
216 0 0
168 0 0
168 0 0
177 0 0
197 0 0
246 0 0
246 0 0
197 0 0
197 0 0
236 0 0
207 0 0
246 0 0
207 0 0
177 0 0
207 0 0
207 0 0
177 0 0
216 0 0
207 0 0
197 0 0
255 0 0
158 0 0
168 0 0
216 0 0
216 0 0
168 0 0
216 0 0
207 0 0
216 0 0
197 0 0
216 0 0
168 0 0
207 0 0
168 0 0
236 0 0
177 0 0
168 0 0
168 0 0
177 0 0
177 0 0
207 0 0
255 0 0
236 0 0
158 0 0
177 0 0
207 0 0
158 0 0
207 0 0
207 0 0
177 0 0
197 0 0
236 0 0
197 0 0
177 0 0
168 0 0
255 0 0
246 0 0
216 0 0
246 0 0
197 0 0
177 0 0
197 0 0
168 0 0
158 0 0
246 0 0
216 0 0
197 0 0
207 0 0
246 0 0
236 0 0
216 0 0
216 0 0
236 0 0
168 0 0
216 0 0
207 0 0
207 0 0
168 0 0
236 0 0
246 0 0
236 0 0
216 0 0
207 0 0
207 0 0
168 0 0
246 0 0
177 0 0
207 0 0
207 0 0
168 0 0
207 0 0
177 0 0
207 0 0
255 0 0
168 0 0
255 0 0
177 0 0
158 0 0
236 0 0
158 0 0
177 0 0
177 0 0
197 0 0
246 0 0
255 0 0
207 0 0
236 0 0
177 0 0
177 0 0
168 0 0
197 0 0
207 0 0
168 0 0
158 0 0
236 0 0
168 0 0
236 0 0
207 0 0
197 0 0
207 0 0
207 0 0
207 0 0
197 0 0
197 0 0
207 0 0
246 0 0
197 0 0
207 0 0
246 0 0
236 0 0
236 0 0
236 0 0
168 0 0
177 0 0
197 0 0
246 0 0
158 0 0
207 0 0
246 0 0
246 0 0
177 0 0
216 0 0
197 0 0
168 0 0
246 0 0
216 0 0
168 0 0
197 0 0
197 0 0
207 0 0
255 0 0
246 0 0
236 0 0
197 0 0
246 0 0
197 0 0
236 0 0
207 0 0
168 0 0
216 0 0
168 0 0
216 0 0
197 0 0
168 0 0
197 0 0
207 0 0
177 0 0
197 0 0
255 0 0
207 0 0
158 0 0
168 0 0
168 0 0
255 0 0
168 0 0
177 0 0
158 0 0
207 0 0
158 0 0
216 0 0
168 0 0
236 0 0
236 0 0
246 0 0
246 0 0
255 0 0
177 0 0
216 0 0
216 0 0
236 0 0
197 0 0
236 0 0
236 0 0
168 0 0
168 0 0
197 0 0
236 0 0
158 0 0
216 0 0
216 0 0
177 0 0
246 0 0
246 0 0
216 0 0
207 0 0
207 0 0
216 0 0
216 0 0
197 0 0
177 0 0
197 0 0
255 0 0
246 0 0
246 0 0
236 0 0
158 0 0
246 0 0
158 0 0
246 0 0
168 0 0
236 0 0
255 0 0
177 0 0
236 0 0
168 0 0
255 0 0
207 0 0
255 0 0
255 0 0
207 0 0
158 0 0
177 0 0
216 0 0
197 0 0
236 0 0
255 0 0
216 0 0
207 0 0
177 0 0
207 0 0
216 0 0
236 0 0
177 0 0
236 0 0
197 0 0
197 0 0
168 0 0
216 0 0
216 0 0
207 0 0
197 0 0
207 0 0
255 0 0
197 0 0
158 0 0
197 0 0
168 0 0
207 0 0
197 0 0
216 0 0
236 0 0
255 0 0
246 0 0
168 0 0
177 0 0
158 0 0
236 0 0
177 0 0
236 0 0
255 0 0
168 0 0
207 0 0
207 0 0
246 0 0
197 0 0
177 0 0
236 0 0
216 0 0
216 0 0
207 0 0
197 0 0
246 0 0
255 0 0
177 0 0
158 0 0
158 0 0
255 0 0
216 0 0
177 0 0
207 0 0
177 0 0
168 0 0
207 0 0
168 0 0
168 0 0
197 0 0
207 0 0
177 0 0
246 0 0
216 0 0
207 0 0
158 0 0
236 0 0
236 0 0
255 0 0
197 0 0
177 0 0
168 0 0
158 0 0
216 0 0
197 0 0
216 0 0
177 0 0
255 0 0
177 0 0
207 0 0
168 0 0
207 0 0
177 0 0
216 0 0
207 0 0
246 0 0
197 0 0
168 0 0
158 0 0
197 0 0
216 0 0
168 0 0
158 0 0
246 0 0
168 0 0
158 0 0
197 0 0
207 0 0
207 0 0
246 0 0
197 0 0
197 0 0
236 0 0
197 0 0
197 0 0
177 0 0
255 0 0
158 0 0
255 0 0
207 0 0
216 0 0
197 0 0
158 0 0
177 0 0
236 0 0
207 0 0
207 0 0
177 0 0
197 0 0
168 0 0
255 0 0
197 0 0
255 0 0
177 0 0
236 0 0
255 0 0
177 0 0
236 0 0
255 0 0
255 0 0
177 0 0
197 0 0
207 0 0
216 0 0
158 0 0
207 0 0
216 0 0
168 0 0
197 0 0
216 0 0
158 0 0
255 0 0
158 0 0
177 0 0
197 0 0
168 0 0
168 0 0
236 0 0
207 0 0
158 0 0
158 0 0
207 0 0
236 0 0
255 0 0
168 0 0
177 0 0
207 0 0
168 0 0
207 0 0
197 0 0
216 0 0
255 0 0
177 0 0
246 0 0
255 0 0
177 0 0
168 0 0
246 0 0
207 0 0
158 0 0
207 0 0
168 0 0
168 0 0
246 0 0
207 0 0
255 0 0
216 0 0
207 0 0
216 0 0
236 0 0
207 0 0
255 0 0
168 0 0
197 0 0
158 0 0
197 0 0
168 0 0
158 0 0
246 0 0
177 0 0
168 0 0
216 0 0
207 0 0
255 0 0
236 0 0
216 0 0
177 0 0
236 0 0
207 0 0
246 0 0
236 0 0
207 0 0
158 0 0
177 0 0
197 0 0
216 0 0
168 0 0
207 0 0
246 0 0
158 0 0
255 0 0
236 0 0
255 0 0
246 0 0
177 0 0
177 0 0
158 0 0
207 0 0
168 0 0
255 0 0
236 0 0
197 0 0
207 0 0
168 0 0
168 0 0
255 0 0
168 0 0
255 0 0
177 0 0
197 0 0
197 0 0
168 0 0
168 0 0
197 0 0
246 0 0
207 0 0
246 0 0
216 0 0
168 0 0
207 0 0
216 0 0
216 0 0
255 0 0
236 0 0
168 0 0
168 0 0
177 0 0
158 0 0
177 0 0
236 0 0
168 0 0
168 0 0
197 0 0
216 0 0
177 0 0
207 0 0
255 0 0
216 0 0
246 0 0
168 0 0
255 0 0
236 0 0
236 0 0
158 0 0
255 0 0
177 0 0
177 0 0
246 0 0
168 0 0
207 0 0
255 0 0
236 0 0
236 0 0
207 0 0
216 0 0
197 0 0
177 0 0
168 0 0
168 0 0
168 0 0
207 0 0
207 0 0
177 0 0
236 0 0
197 0 0
207 0 0
255 0 0
177 0 0
207 0 0
216 0 0
168 0 0
216 0 0
197 0 0
177 0 0
158 0 0
236 0 0
158 0 0
168 0 0
216 0 0
216 0 0
236 0 0
177 0 0
158 0 0
255 0 0
207 0 0
255 0 0
207 0 0
158 0 0
197 0 0
236 0 0
197 0 0
246 0 0
207 0 0
168 0 0
197 0 0
255 0 0
255 0 0
207 0 0
177 0 0
236 0 0
255 0 0
207 0 0
197 0 0
207 0 0
168 0 0
197 0 0
197 0 0
246 0 0
207 0 0
168 0 0
168 0 0
197 0 0
177 0 0
236 0 0
168 0 0
197 0 0
197 0 0
158 0 0
236 0 0
207 0 0
236 0 0
197 0 0
255 0 0
168 0 0
236 0 0
197 0 0
255 0 0
216 0 0
216 0 0
168 0 0
177 0 0
236 0 0
177 0 0
207 0 0
177 0 0
207 0 0
246 0 0
158 0 0
216 0 0
236 0 0
207 0 0
177 0 0
216 0 0
246 0 0
177 0 0
158 0 0
216 0 0
158 0 0
246 0 0
168 0 0
246 0 0
158 0 0
197 0 0
168 0 0
255 0 0
207 0 0
216 0 0
197 0 0
158 0 0
168 0 0
168 0 0
177 0 0
168 0 0
236 0 0
216 0 0
216 0 0
207 0 0
177 0 0
236 0 0
207 0 0
216 0 0
168 0 0
177 0 0
168 0 0
255 0 0
177 0 0
236 0 0
246 0 0
168 0 0
216 0 0
207 0 0
168 0 0
216 0 0
177 0 0
236 0 0
207 0 0
216 0 0
177 0 0
246 0 0
177 0 0
236 0 0
255 0 0
236 0 0
255 0 0
236 0 0
177 0 0
168 0 0
236 0 0
207 0 0
168 0 0
168 0 0
168 0 0
236 0 0
158 0 0
158 0 0
236 0 0
216 0 0
246 0 0
158 0 0
197 0 0
255 0 0
177 0 0
158 0 0
197 0 0
216 0 0
216 0 0
236 0 0
216 0 0
207 0 0
246 0 0
255 0 0
158 0 0
246 0 0
168 0 0
246 0 0
177 0 0
216 0 0
158 0 0
207 0 0
197 0 0
197 0 0
168 0 0
168 0 0
177 0 0
236 0 0
197 0 0
207 0 0
177 0 0
216 0 0
197 0 0
177 0 0
197 0 0
197 0 0
168 0 0
168 0 0
197 0 0
207 0 0
197 0 0
158 0 0
168 0 0
236 0 0
207 0 0
246 0 0
255 0 0
216 0 0
207 0 0
236 0 0
207 0 0
236 0 0
236 0 0
168 0 0
246 0 0
207 0 0
158 0 0
236 0 0
255 0 0
255 0 0
236 0 0
168 0 0
177 0 0
177 0 0
236 0 0
255 0 0
168 0 0
207 0 0
207 0 0
207 0 0
246 0 0
216 0 0
216 0 0
168 0 0
236 0 0
255 0 0
216 0 0
168 0 0
216 0 0
207 0 0
197 0 0
236 0 0
236 0 0
207 0 0
158 0 0
236 0 0
197 0 0
255 0 0
168 0 0
216 0 0
197 0 0
236 0 0
207 0 0
255 0 0
207 0 0
236 0 0
177 0 0
236 0 0
255 0 0
158 0 0
207 0 0
158 0 0
236 0 0
236 0 0
168 0 0
236 0 0
255 0 0
216 0 0
207 0 0
207 0 0
177 0 0
255 0 0
246 0 0
197 0 0
158 0 0
158 0 0
246 0 0
177 0 0
197 0 0
168 0 0
216 0 0
236 0 0
168 0 0
207 0 0
158 0 0
197 0 0
236 0 0
246 0 0
168 0 0
197 0 0
177 0 0
177 0 0
216 0 0
158 0 0
236 0 0
216 0 0
207 0 0
197 0 0
168 0 0
158 0 0
177 0 0
197 0 0
236 0 0
246 0 0
158 0 0
177 0 0
255 0 0
255 0 0
216 0 0
246 0 0
216 0 0
177 0 0
177 0 0
236 0 0
168 0 0
197 0 0
168 0 0
246 0 0
207 0 0
216 0 0
158 0 0
246 0 0
168 0 0
246 0 0
177 0 0
207 0 0
168 0 0
236 0 0
177 0 0
246 0 0
207 0 0
207 0 0
168 0 0
246 0 0
216 0 0
207 0 0
216 0 0
207 0 0
255 0 0
236 0 0
197 0 0
207 0 0
255 0 0
197 0 0
255 0 0
158 0 0
168 0 0
177 0 0
